<svg width="300" height="100" xmlns="http://www.w3.org/2000/svg">
  <linearGradient gradientTransform="rotate(25)" id="3a31dbc3-dd9d-4ce9-8cfa-c69d6dea278d" x1="0%" y1="0%" x2="100%" y2="0%">
   <stop offset="0%" stop-color="#913C00"/>
   <stop offset="100%" stop-color="#D9AD76"/>
  </linearGradient>
   <g fill="#000000" transform="matrix(4.3940212579427245,0,0,4.3940212579427245,171.2950860567552,161.14314121782206) ">
    <path d="m-6.59287,-31.83294c0.47,0 0.68,0.26 0.68,0.63c0,0.8 -0.92,2.17 -1.5,2.82c0.12,0.24 0.28,0.32 0.44,0.32c0.77,0 1.62,-1.89 1.62,-2.98c0,-0.87 -0.53,-1.21 -1.29,-1.21c-2.66,0 -5.75,4.18 -5.75,7.87c0,1.71 0.77,3.42 2.76,3.42c1.87,0 3.4,-1.51 4.34,-3.35l-0.2,-0.14c-0.74,1.6 -2.32,3.01 -3.81,3.01c-1.41,0 -1.97,-1.31 -1.97,-2.7c0,-3.15 2.66,-7.69 4.68,-7.69zm4.74,6.68c-0.68,1.01 -2.07,3.05 -2.94,3.05c-0.25,0 -0.38,-0.16 -0.38,-0.54c0,-1.36 1.57,-3.96 2.89,-3.96c0.5,0 0.68,0.36 0.68,0.78c0,0.15 -0.02,0.34 -0.07,0.49c0.41,0 0.69,-0.14 0.69,-0.6c0,-0.63 -0.55,-1.05 -1.27,-1.05c-1.82,0 -3.88,2.63 -3.88,4.3c0,0.78 0.45,1.16 1.03,1.16c0.69,0 1.31,-0.55 2.12,-1.63c-0.03,0.16 -0.04,0.3 -0.04,0.41c0,0.49 0.32,0.98 1,0.98c1,0 2.19,-1.04 2.78,-2.55l-0.14,-0.14c-0.84,1.49 -1.74,2.21 -2.24,2.21c-0.34,0 -0.48,-0.33 -0.48,-0.61c0,-0.67 0.81,-1.63 0.81,-1.95c0,-0.21 -0.39,-0.32 -0.56,-0.35zm6.83,0.7c-0.51,0.88 -0.89,1.37 -1.55,1.37c-0.88,0 -1.04,-0.91 -1.22,-2.18c-0.03,-0.2 -0.15,-0.41 -0.35,-0.45c0.09,-0.24 0.17,-0.47 0.27,-0.7c1.78,-1.24 3.74,-3.64 3.74,-5.23c0,-0.34 -0.09,-0.62 -0.48,-0.62c-2.32,0 -5.99,9.9 -5.99,12.77c0,1.03 0.47,1.23 0.77,1.23c1.06,0 2.14,-2.58 2.15,-4.91c0.31,0.28 0.7,0.46 1.04,0.46c0.55,0 1.36,-0.48 1.83,-1.6l-0.21,-0.14zm-3.02,1.43c0,1.47 -0.9,4.09 -1.43,4.09c-0.17,0 -0.26,-0.25 -0.26,-0.67c0,-0.96 0.5,-2.96 1.21,-5.06c0.34,0.66 0.48,1.07 0.48,1.64zm3.16,-8.3c0.13,0 0.2,0.05 0.2,0.19c0,0.58 -1.16,2.48 -2.97,4.15c0.95,-2.37 2.05,-4.34 2.77,-4.34zm3.84,4.95c0,-0.68 -0.43,-0.85 -0.87,-0.85c-1.65,0 -3.55,2.37 -3.55,4.03c0,0.91 0.57,1.63 1.7,1.63c1.39,0 2.85,-1.08 3.6,-2.76l-0.17,-0.13c-0.7,1.35 -1.94,2.48 -3.13,2.48c-0.87,0 -1.11,-0.6 -1.11,-1.18c0,-0.14 0.02,-0.32 0.06,-0.5c1.59,-0.15 3.47,-1.29 3.47,-2.72zm-0.91,-0.42c0.24,0 0.29,0.12 0.29,0.33c0,1.2 -1.79,2.19 -2.78,2.54c0.38,-1.33 1.59,-2.87 2.49,-2.87zm6.22,-4.43c0,-0.4 -0.17,-1.04 -0.47,-1.04c-0.95,0 -4.35,6.37 -4.35,9.06c0,0.82 0.32,1.44 1.12,1.44c1.01,0 1.89,-0.98 2.63,-2.58l-0.21,-0.11c-0.49,1.09 -1.27,2.24 -2.01,2.24c-0.41,0 -0.62,-0.35 -0.62,-1.08c0,-0.42 0.07,-0.91 0.18,-1.41c2.05,-1.69 3.73,-5.28 3.73,-6.52zm-0.54,0.09c0.05,0 0.1,0.05 0.1,0.23c0,0.94 -1.54,4.09 -3.16,5.72c0.77,-2.7 2.69,-5.95 3.06,-5.95zm0.94,4.2c-0.95,0 -2.01,2.87 -2.01,3.94c0,0.66 0.35,1.17 1.07,1.17c1.1,0 2.22,-0.88 2.76,-2.49l-0.12,-0.14c-0.8,1.6 -1.53,2.14 -2.16,2.14c-0.46,0 -0.69,-0.16 -0.69,-0.84c0,-1.31 1.46,-3.01 1.46,-3.47c0,-0.19 -0.14,-0.31 -0.31,-0.31zm0.74,-1.3c0.45,0 0.91,-0.4 0.91,-0.75c0,-0.33 -0.18,-0.44 -0.46,-0.44c-0.45,0 -1.02,0.34 -1.02,0.73c0,0.32 0.27,0.46 0.57,0.46zm0.17,5.95c0.16,0.21 0.45,0.31 0.74,0.31c0.73,-1.23 2.02,-3.46 3.18,-3.46c0.32,0 0.56,0.17 0.56,0.69c0,0.66 -0.4,1.37 -0.4,1.94c0,0.52 0.32,0.9 0.98,0.9c1.05,0 1.83,-0.99 2.42,-2.37l-0.16,-0.18c-0.51,1.04 -1.26,2.19 -1.96,2.19c-0.23,0 -0.42,-0.14 -0.42,-0.54c0,-0.68 0.58,-1.34 0.58,-2.21c0,-0.63 -0.31,-1.26 -1.04,-1.26c-1.06,0 -2.17,1.33 -2.91,2.47c0.25,-0.77 0.45,-1.56 0.45,-1.85c0,-0.23 -0.13,-0.37 -0.38,-0.37c-0.27,0 -0.53,0.17 -0.64,0.3c-0.02,1.22 -1,3.27 -1,3.44zm10.99,-2.87c-0.68,1.01 -2.07,3.05 -2.94,3.05c-0.25,0 -0.38,-0.16 -0.38,-0.54c0,-1.36 1.57,-3.96 2.89,-3.96c0.5,0 0.68,0.36 0.68,0.78c0,0.15 -0.02,0.34 -0.07,0.49c0.41,0 0.69,-0.14 0.69,-0.6c0,-0.63 -0.55,-1.05 -1.27,-1.05c-1.82,0 -3.88,2.63 -3.88,4.3c0,0.78 0.45,1.16 1.03,1.16c0.69,0 1.31,-0.55 2.12,-1.63c-0.03,0.16 -0.04,0.3 -0.04,0.41c0,0.49 0.32,0.98 1,0.98c1,0 2.19,-1.04 2.78,-2.55l-0.14,-0.14c-0.84,1.49 -1.74,2.21 -2.24,2.21c-0.34,0 -0.48,-0.33 -0.48,-0.61c0,-0.67 0.81,-1.63 0.81,-1.95c0,-0.21 -0.39,-0.32 -0.56,-0.35z"/>
   </g>
   <g fill="url(#3a31dbc3-dd9d-4ce9-8cfa-c69d6dea278d)" transform="matrix(0.01101571392730344,0,0,0.01101571392730344,48.946688583810754,149.12358136388252) ">
    <path d="m-2528.35156,-9232.13967c69,0 124,56 124,124s-55,123 -124,123c-68,0 -123,-55 -123,-123s55,-124 123,-124zm4260,-2547c-26,-119 -20,-167 -85,-281c-140,-248 -467,-395 -760,-281c-308,119 -432,494 -302,719c165,287 596,241 652,-85c26,-156 -62,-223 -159,-192c-135,43 -29,205 -156,217c-59,5 -104,-31 -125,-64c-25,-40 -20,-106 -7,-156c77,-309 519,-309 660,-8c121,258 -32,612 -335,699c-498,144 -1000,-375 -778,-934c74,-185 192,-310 350,-396c515,-282 1258,127 1293,771c12,245 -74,515 -185,676c-187,272 -375,501 -436,867c-14,88 -37,318 -8,396c43,112 234,101 236,-46c3,-150 -5,-259 33,-401c131,-492 446,-599 579,-1158c85,-355 -14,-741 -235,-1002c-22,-25 -26,-33 -52,-57c-19,-17 -36,-35 -54,-54c-40,-41 -75,-65 -116,-100c-87,-57 -161,-105 -273,-149c-51,-20 -106,-37 -161,-49c-35,-8 -162,-20 -179,-30c-52,9 -114,1 -168,6c-818,74 -1144,995 -764,1529c87,122 210,245 374,317c590,262 1206,-139 1161,-754zm2144,3541c357,115 565,349 645,609c49,162 47,333 1,492c-47,159 -139,307 -270,422c-262,229 -679,331 -1209,136c-393,347 -925,555 -1617,555c-1607,0 -2357,-1127 -2487,-2508l-578,6l187,560l0,1942l-2070,-755c561,831 1420,1420 2408,1641c1053,235 2157,29 3049,-568c50,-37 120,-31 163,14c55,59 41,152 -28,192c-2179,1457 -5096,539 -6137,-1752c-260,-572 -386,-1190 -375,-1806l-1,0l1,-1c6,-366 60,-731 163,-1087c533,-1845 2313,-3181 4364,-3014l3,0c64,5 113,58 113,123c0,68 -55,123 -123,123c-4,0 -8,0 -12,-1c-527,-43 -1041,21 -1520,174l0,1895l497,554c22,25 20,64 -5,87c-12,10 -27,15 -41,15l-261,0c-11,47 -36,89 -68,122c-47,47 -112,76 -184,76c-71,0 -136,-29 -183,-76c-33,-33 -57,-75 -69,-122l-260,0c-35,0 -62,-27 -62,-61c0,-18 8,-34 20,-45l493,-550l0,-1853c-299,107 -583,249 -847,422l0,465l497,554c23,26 21,65 -5,87c-11,11 -26,16 -41,16l-260,0c-12,47 -36,89 -69,122c-47,47 -112,76 -183,76c-72,0 -137,-29 -184,-76c-33,-33 -57,-75 -68,-122l-261,0c-34,0 -62,-28 -62,-62c0,-17 8,-34 20,-45l493,-550l0,-380c-729,521 -1257,1274 -1500,2127c-77,272 -124,549 -142,827c487,-279 1238,-413 2173,-413l336,1003l610,-7c-8,-109 -12,-219 -12,-330c0,-272 614,-506 1495,-609l5,-1c130,-18 250,-105 303,-172c174,-221 178,-482 8,-698c-60,-49 -83,-100 -197,-148c-534,-224 -722,415 -336,560c160,61 232,-25 198,-103c-41,-92 -169,-7 -207,-139c-17,-59 9,-103 40,-129c38,-32 90,-29 146,-25c152,49 258,126 273,300c15,177 -103,307 -232,346c-267,81 -615,-127 -663,-463c-48,-341 210,-616 514,-636c369,-25 625,197 744,416c159,295 93,657 -92,864c-41,50 -89,94 -142,133c-91,66 -199,114 -324,138c-277,32 -526,77 -735,133c-333,88 -541,171 -551,229c16,78 94,149 218,211c417,-184 1176,-307 2043,-307c868,0 1627,124 2044,307c124,-62 202,-133 218,-211c-10,-58 -218,-141 -551,-229c-74,-20 -153,-39 -237,-55l1,-1c-21,-6 -42,-12 -62,-18l-1,0c-48,-15 -96,-31 -145,-51l-3,-1l-3,-2l-5,-2l-2,0c-68,-28 -133,-59 -196,-96c-19,-11 -37,-23 -55,-35l-4,-2c-34,-22 -69,-46 -104,-72c-66,-50 -93,-76 -142,-143c-430,-592 -157,-1433 539,-1505c46,-5 100,2 145,-8c36,22 393,17 627,372c25,38 50,85 70,133c132,320 70,681 -207,869c-181,123 -435,127 -624,9c-198,-123 -354,-410 -243,-692c23,-58 51,-82 85,-118c129,-136 411,-134 535,88c47,84 67,245 -6,312c-87,79 -219,10 -201,-126c19,-139 -163,-167 -193,-38c-56,234 143,441 372,412c219,-29 337,-238 293,-493c-36,-215 -187,-374 -360,-440c-418,-161 -863,183 -782,715c37,248 160,400 288,511c104,92 206,131 318,159c664,120 1100,322 1100,551c0,256 -20,506 -59,747zm-973,1455l0,-275c0,-40 19,-76 49,-98c5,-4 10,-8 16,-10l5,-3l2,-1l3,-1l308,-141c31,-14 67,0 82,30c14,31 0,68 -31,82l-174,79c150,77 268,80 343,44c29,-15 50,-35 62,-58c11,-22 15,-47 9,-74c-14,-69 -85,-144 -230,-193l-6,-2l-7,-2c-107,-36 -298,-100 -385,-278c-98,23 -203,44 -314,61c-649,105 -1483,116 -2172,34c-504,-59 -934,-172 -1167,-338c100,370 259,701 485,967c359,425 898,690 1645,690c639,0 1124,-193 1476,-514l1,1zm8,-1018c-5,-30 -8,-61 -8,-95c0,-54 34,-99 82,-116l590,-270c20,-9 40,-12 61,-11c17,-108 30,-220 39,-333c-219,142 -560,244 -962,309c-390,63 -839,94 -1287,94c-447,0 -896,-31 -1286,-94c-402,-65 -743,-167 -962,-309c12,155 32,306 60,452c77,231 590,386 1240,463c679,81 1500,70 2138,-33c103,-17 202,-36 295,-57zm1375,244c-68,-223 -273,-420 -643,-486l-481,220c41,114 177,159 250,184l7,2l7,2c239,81 362,231 392,378c16,82 5,163 -32,234c-35,69 -94,128 -171,166c-116,57 -278,69 -466,-2l0,56c422,149 744,75 941,-97c96,-83 162,-191 196,-305c34,-115 35,-238 0,-352zm-3200,-2088c111,-4 225,-6 340,-6c227,0 446,8 654,23c93,114 202,204 320,276c-297,-34 -626,-53 -974,-53c-201,0 -397,7 -583,19l4,-4c97,-70 176,-157 239,-255zm973,1420l-375,-418l-375,418l750,0zm-279,158c11,-10 19,-22 26,-35l-243,0c6,13 15,25 25,35c25,25 59,40 96,40c38,0 72,-15 96,-40zm-4525,-3211l635,0l-375,-419l-375,419l115,0zm4881,3369c10,-10 19,-22 25,-35l-243,0c7,13 15,25 26,35c24,24 58,40 96,40c37,0 71,-16 96,-40zm-6323,-802c10,138 27,276 51,413l2438,891l0,-395l-2489,-909zm6402,1356c31,145 70,288 118,430l2292,837l0,-386l-8733,-1683l6323,802zm172,580c28,75 60,149 93,223c37,81 77,161 119,239l2026,740l0,-385l-2238,-817zm-6566,-2195l2429,887l-442,-1320c-454,9 -981,50 -1436,192c-201,63 -365,149 -551,241zm7529,2057c68,0 123,55 123,123s-55,123 -123,123s-123,-55 -123,-123s55,-123 123,-123zm754,274c68,0 123,56 123,123c0,68 -55,124 -123,124s-123,-56 -123,-124c0,-67 55,-123 123,-123z"/>
   </g>
</svg>