<svg width="300" height="80" xmlns="http://www.w3.org/2000/svg" class="iconLeft">
 <!---->
 <defs>
  <!---->
  <linearGradient gradientTransform="rotate(25)" id="d9d80225-7eb2-4fd0-920d-a2b2baac2de5" x1="0%" y1="0%" x2="100%" y2="0%">
   <stop offset="0%" stop-color="#5F2517"/>
   <stop offset="100%" stop-color="#CAB08D"/>
  </linearGradient>
 </defs>
 <defs>
  <!---->
 </defs>
 <!---->
 <g>
  <g id="svg_4">
   <title transform="translate(0,-1) translate(-1,0) translate(0,1) translate(1,0) ">background</title>
   <rect x="-1" y="-1" width="302" height="82" id="canvas_background" fill="none"/>
  </g>
  <g id="svg_5">
   <title transform="translate(0,-29) translate(5,0) translate(-3,0) translate(-2,-81) ">Layer 1</title>
   <rect x="0" fill="transparent" y="0" width="300" height="80" class="logo-background-square" id="svg_1" stroke="null"/>
   <g id="da90974e-ba04-4d54-9843-cd9d35edf80d" fill="#000000" transform="matrix(2.751696340016538,0,0,2.751696340016538,119.03059776057938,121.68504345408766) ">
    <path d="m10.89,-35.875342l0,0l0,0q0.48,0.12 0.6,0.19l0,0l0,0q0.12,0.06 0.12,0.12l0,0l0,0q0,0.05 -0.13,0.15l0,0l0,0q-0.12,0.1 -0.31,0.22l0,0l0,0q-0.19,0.13 -0.42,0.27l0,0l0,0q-0.23,0.14 -0.44,0.26l0,0l0,0q-0.51,0.3 -0.61,0.33l0,0l0,0q0.02,-0.02 0.08,-0.06l0,0l0,0q0.05,-0.04 0.11,-0.08l0,0l0,0q0.15,-0.12 0.15,-0.17l0,0l0,0q0,-0.05 -0.31,-0.17l0,0l0,0q-0.62,-0.24 -1.72,-0.24l0,0l0,0q-1.1,0 -2.03,0.38l0,0l0,0q-0.93,0.39 -1.58,1.08l0,0l0,0q-1.34,1.42 -1.34,3.69l0,0l0,0q0,1.5 0.8,2.4l0,0l0,0q0.83,0.95 2.31,0.95l0,0l0,0q1.21,0 3.18,-0.78l0,0l0,0q-1.51,1.18 -3.55,1.61l0,0l0,0q-0.65,0.13 -1.33,0.13l0,0l0,0q-0.67,0 -1.24,-0.24l0,0l0,0q-0.57,-0.24 -0.95,-0.67l0,0l0,0q-0.78,-0.87 -0.78,-2.34l0,0l0,0q0,-1.92 1.3,-3.64l0,0l0,0q1.2,-1.58 3.13,-2.55l0,0l0,0q1.91,-0.96 3.78,-0.96l0,0l0,0q0.69,0 1.18,0.12zm1.48,10.12l0,0l0,0q-1.85,0 -1.85,-1.83l0,0l0,0q0,-1.25 0.74,-2.46l0,0l0,0q0.71,-1.15 1.87,-1.88l0,0l0,0q1.18,-0.75 2.44,-0.75l0,0l0,0q0.56,0 1.02,0.17l0,0l0,0q0.46,0.17 0.68,0.23l0,0l-1.04,4.49l0,0q-0.08,0.35 -0.08,0.53l0,0l0,0q0,0.54 0.66,0.54l0,0l0,0q0.21,0 0.41,-0.04l0,0l0,0q-0.21,0.14 -0.44,0.32l0,0l0,0q-0.24,0.17 -0.48,0.31l0,0l0,0q-0.6,0.34 -1.05,0.34l0,0l0,0q-0.49,0 -0.62,-0.24l0,0l0,0q-0.05,-0.11 -0.05,-0.25l0,0l0,0q0,-0.23 0.08,-0.52l0,0l0,0q-0.25,0.16 -0.52,0.34l0,0l0,0q-0.27,0.19 -0.56,0.34l0,0l0,0q-0.67,0.36 -1.21,0.36zm-0.36,-2.51l0,0l0,0q0,1.59 1.61,1.59l0,0l0,0q0.26,0 0.57,-0.16l0,0l0,0q0.55,-0.29 0.62,-0.54l0,0l0.78,-3.39l0,0q-0.19,-0.51 -0.53,-0.75l0,0l0,0q-0.34,-0.24 -0.8,-0.24l0,0l0,0q-0.47,0 -0.77,0.17l0,0l0,0q-0.3,0.18 -0.54,0.46l0,0l0,0q-0.24,0.29 -0.41,0.66l0,0l0,0q-0.18,0.36 -0.3,0.75l0,0l0,0q-0.23,0.78 -0.23,1.45zm4.92,4.94l0,0l0,0q-0.24,0.16 -0.24,0.34l0,0l0,0q0,0.3 0.35,0.28l0,0l0.01,0l0,0q0.92,-1.1 1.43,-3.34l0,0l1.32,-5.71l-0.86,0l0,0q0.64,-0.42 1.02,-0.67l0,0l0,0q0.32,-1.4 0.52,-1.9l0,0l0,0q0.21,-0.5 0.41,-0.81l0,0l0,0q0.21,-0.32 0.51,-0.61l0,0l0,0q0.57,-0.53 1.75,-1.2l0,0l0,0q1.12,-0.65 1.99,-0.65l0,0l0,0q0.29,0 0.64,0.11l0,0l0,0q0.69,0.2 0.69,0.42l0,0l0,0q0,0.23 -1.16,0.88l0,0l0,0q-0.44,0.24 -0.58,0.25l0,0l0,0q0.19,-0.18 0.19,-0.21l0,0l0,0q0,-0.19 -0.58,-0.37l0,0l0,0q-0.5,-0.16 -0.72,-0.16l0,0l0,0q-0.47,0 -0.77,0.09l0,0l0,0q-0.84,0.88 -1.28,2.89l0,0l0,0q-0.11,0.53 -0.22,1.01l0,0l2.56,0l0,0q-0.13,0.03 -0.56,0.35l0,0l0,0q-0.43,0.32 -0.64,0.45l0,0l0,0q-0.21,0.13 -0.34,0.13l0,0l-1.23,0l-1.31,5.59l0,0q-0.21,0.92 -0.85,1.93l0,0l0,0q-1.06,1.68 -2.46,2.27l0,0l0,0q-0.48,0.19 -0.92,0.19l0,0l0,0q-0.44,0 -0.44,-0.24l0,0l0,0q0,-0.37 1.14,-0.96l0,0l0,0q0.48,-0.25 0.63,-0.35zm11.19,-8.5l0,0l0,0q0,1.43 -3.9,3.38l0,0l0,0q0.07,1.72 1.8,1.72l0,0l0,0q0.78,0 1.62,-0.43l0,0l0,0q-0.97,0.93 -2.43,1.26l0,0l0,0q-0.46,0.1 -0.89,0.1l0,0l0,0q-0.44,0 -0.75,-0.16l0,0l0,0q-0.31,-0.15 -0.51,-0.41l0,0l0,0q-0.37,-0.51 -0.37,-1.2l0,0l0,0q0,-0.69 0.21,-1.26l0,0l0,0q0.21,-0.56 0.56,-1.1l0,0l0,0q0.35,-0.54 0.81,-1.03l0,0l0,0q0.47,-0.48 1,-0.84l0,0l0,0q1.14,-0.8 2.11,-0.8l0,0l0,0q0.35,0 0.54,0.22l0,0l0,0q0.2,0.21 0.2,0.55zm-1.71,1.37l0,0l0,0q0.17,-0.27 0.17,-0.49l0,0l0,0q0,-0.23 -0.18,-0.46l0,0l0,0q-0.17,-0.23 -0.48,-0.23l0,0l0,0q-0.32,0 -0.54,0.15l0,0l0,0q-0.22,0.16 -0.4,0.4l0,0l0,0q-0.18,0.25 -0.32,0.56l0,0l0,0q-0.13,0.31 -0.23,0.63l0,0l0,0q-0.17,0.6 -0.2,1.12l0,0l0,0q0.67,-0.17 1.52,-0.95l0,0l0,0q0.5,-0.46 0.66,-0.73zm4.5,-4.84l0,0l0,0q0,-0.7 -0.67,-0.7l0,0l0,0q-0.16,0 -0.31,0.03l0,0l0,0q0.37,-0.22 0.74,-0.45l0,0l0,0q0.37,-0.22 0.73,-0.39l0,0l0,0q0.76,-0.36 1.39,-0.63l0,0l-2.19,9.43l0,0q-0.05,0.19 -0.1,0.39l0,0l0,0q-0.05,0.2 -0.05,0.39l0,0l0,0q0,0.18 0.07,0.29l0,0l0,0q0.06,0.1 0.18,0.15l0,0l0,0q0.35,0.16 0.97,0.04l0,0l0,0q-0.24,0.17 -0.48,0.34l0,0l0,0q-0.24,0.18 -0.5,0.32l0,0l0,0q-0.58,0.33 -1.12,0.33l0,0l0,0q-0.59,0 -0.59,-0.69l0,0l0,0q0,-0.35 0.13,-0.9l0,0l1.71,-7.31l0,0q0.09,-0.41 0.09,-0.64zm4.32,-1.27l1.54,-0.93l0,0q-0.2,1.21 -0.35,1.48l0,0l0,0q-0.04,0.09 -0.47,0.33l0,0l0,0q-0.42,0.24 -0.59,0.34l0,0l0,0q-0.36,0.2 -0.48,0.26l0,0l0,0q0.22,-0.71 0.35,-1.48l0,0zm-1.36,5.91l0,0l0,0q0,-0.49 -0.45,-0.49l0,0l0,0q-0.2,0 -0.61,0.09l0,0l0,0q2.06,-1.32 2.92,-1.71l0,0l-1.12,4.82l0,0q-0.04,0.18 -0.09,0.36l0,0l0,0q-0.04,0.19 -0.04,0.37l0,0l0,0q0,0.53 0.77,0.53l0,0l0,0q0.19,0 0.44,-0.05l0,0l0,0q-0.22,0.15 -0.45,0.32l0,0l0,0q-0.23,0.17 -0.48,0.32l0,0l0,0q-0.57,0.33 -1.05,0.33l0,0l0,0q-0.56,0 -0.69,-0.3l0,0l0,0q-0.06,-0.12 -0.06,-0.28l0,0l0,0q0,-0.25 0.06,-0.5l0,0l0.76,-3.25l0,0q0.09,-0.35 0.09,-0.56zm8.66,3.38l0,0l0,0q0,0.56 0.62,0.56l0,0l0,0q0.25,0 0.55,-0.1l0,0l0,0q-0.7,0.5 -0.98,0.66l0,0l0,0q-0.63,0.36 -1.11,0.36l0,0l0,0q-0.62,0 -0.62,-0.59l0,0l0,0q0,-0.26 0.16,-0.89l0,0l0.59,-2.56l0,0q0.08,-0.37 0.08,-0.63l0,0l0,0q0,-1.12 -1.16,-1.12l0,0l0,0q-0.99,0 -1.41,1.45l0,0l0,0q-0.11,0.38 -0.18,0.69l0,0l-0.49,2.11l0,0q-0.03,0.1 -0.03,0.23l0,0l0,0q0,0.43 0.37,0.43l0,0l0,0q0.15,0 0.33,-0.07l0,0l0,0q-1.34,0.99 -1.86,0.99l0,0l0,0q-0.4,0 -0.4,-0.4l0,0l0,0q0,-0.18 0.4,-1.84l0,0l0,0q0.41,-1.65 0.54,-2.25l0,0l0,0q0.17,-0.75 0.17,-0.9l0,0l0,0q0,-0.5 -0.65,-0.5l0,0l0,0q-0.29,0 -0.6,0.11l0,0l0,0q0.26,-0.09 0.58,-0.34l0,0l0,0q0.63,-0.48 0.84,-0.55l0,0l0,0q0.44,-0.16 0.78,-0.16l0,0l0,0q0.58,0 0.58,0.52l0,0l0,0q0,0.22 -0.11,0.66l0,0l0,0q1.57,-1.13 2.66,-1.13l0,0l0,0q0.51,0 0.87,0.28l0,0l0,0q0.37,0.31 0.37,0.81l0,0l0,0q0,0.14 -0.03,0.3l0,0l-0.79,3.37l0,0q-0.07,0.31 -0.07,0.5zm3.8,1.52l0,0l0,0q-1.86,0 -1.86,-1.83l0,0l0,0q0,-1.25 0.74,-2.46l0,0l0,0q0.71,-1.15 1.87,-1.88l0,0l0,0q1.19,-0.75 2.45,-0.75l0,0l0,0q0.55,0 1.01,0.17l0,0l0,0q0.46,0.17 0.69,0.23l0,0l-1.05,4.49l0,0q-0.07,0.35 -0.07,0.53l0,0l0,0q0,0.54 0.65,0.54l0,0l0,0q0.22,0 0.41,-0.04l0,0l0,0q-0.21,0.14 -0.44,0.32l0,0l0,0q-0.23,0.17 -0.48,0.31l0,0l0,0q-0.59,0.34 -1.04,0.34l0,0l0,0q-0.5,0 -0.63,-0.24l0,0l0,0q-0.04,-0.11 -0.04,-0.25l0,0l0,0q0,-0.23 0.08,-0.52l0,0l0,0q-0.26,0.16 -0.53,0.34l0,0l0,0q-0.27,0.19 -0.55,0.34l0,0l0,0q-0.67,0.36 -1.21,0.36zm-0.37,-2.51l0,0l0,0q0,1.59 1.62,1.59l0,0l0,0q0.26,0 0.57,-0.16l0,0l0,0q0.54,-0.29 0.61,-0.54l0,0l0.79,-3.39l0,0q-0.19,-0.51 -0.54,-0.75l0,0l0,0q-0.34,-0.24 -0.8,-0.24l0,0l0,0q-0.46,0 -0.76,0.17l0,0l0,0q-0.3,0.18 -0.54,0.46l0,0l0,0q-0.24,0.29 -0.42,0.66l0,0l0,0q-0.18,0.36 -0.29,0.75l0,0l0,0q-0.24,0.78 -0.24,1.45z" id="svg_2"/>
   </g>
   <g id="84c75dc5-e7f6-4cc3-b05e-4d3cedde05a1" fill="url(#d9d80225-7eb2-4fd0-920d-a2b2baac2de5)" transform="matrix(0.007795240028117953,0,0,0.007795240028117953,36.10237998594102,111.02210416632794) ">
    <path d="m2414.999969,-9357.175049c69,0 124,56 124,124s-55,123 -124,123c-68,0 -123,-55 -123,-123s55,-124 123,-124zm4260,-2547c-26,-119 -20,-167 -85,-281c-140,-248 -467,-395 -760,-281c-308,119 -432,494 -302,719c165,287 596,241 652,-85c26,-156 -62,-223 -159,-192c-135,43 -29,205 -156,217c-59,5 -104,-31 -125,-64c-25,-40 -20,-106 -7,-156c77,-309 519,-309 660,-8c121,258 -32,612 -335,699c-498,144 -1000,-375 -778,-934c74,-185 192,-310 350,-396c515,-282 1258,127 1293,771c12,245 -74,515 -185,676c-187,272 -375,501 -436,867c-14,88 -37,318 -8,396c43,112 234,101 236,-46c3,-150 -5,-259 33,-401c131,-492 446,-599 579,-1158c85,-355 -14,-741 -235,-1002c-22,-25 -26,-33 -52,-57c-19,-17 -36,-35 -54,-54c-40,-41 -75,-65 -116,-100c-87,-57 -161,-105 -273,-149c-51,-20 -106,-37 -161,-49c-35,-8 -162,-20 -179,-30c-52,9 -114,1 -168,6c-818,74 -1144,995 -764,1529c87,122 210,245 374,317c590,262 1206,-139 1161,-754zm2144,3541c357,115 565,349 645,609c49,162 47,333 1,492c-47,159 -139,307 -270,422c-262,229 -679,331 -1209,136c-393,347 -925,555 -1617,555c-1607,0 -2357,-1127 -2487,-2508l-578,6l187,560l0,1942l-2070,-755c561,831 1420,1420 2408,1641c1053,235 2157,29 3049,-568c50,-37 120,-31 163,14c55,59 41,152 -28,192c-2179,1457 -5096,539 -6137,-1752c-260,-572 -386,-1190 -375,-1806l-1,0l1,-1c6,-366 60,-731 163,-1087c533,-1845 2313,-3181 4364,-3014l3,0c64,5 113,58 113,123c0,68 -55,123 -123,123c-4,0 -8,0 -12,-1c-527,-43 -1041,21 -1520,174l0,1895l497,554c22,25 20,64 -5,87c-12,10 -27,15 -41,15l-261,0c-11,47 -36,89 -68,122c-47,47 -112,76 -184,76c-71,0 -136,-29 -183,-76c-33,-33 -57,-75 -69,-122l-260,0c-35,0 -62,-27 -62,-61c0,-18 8,-34 20,-45l493,-550l0,-1853c-299,107 -583,249 -847,422l0,465l497,554c23,26 21,65 -5,87c-11,11 -26,16 -41,16l-260,0c-12,47 -36,89 -69,122c-47,47 -112,76 -183,76c-72,0 -137,-29 -184,-76c-33,-33 -57,-75 -68,-122l-261,0c-34,0 -62,-28 -62,-62c0,-17 8,-34 20,-45l493,-550l0,-380c-729,521 -1257,1274 -1500,2127c-77,272 -124,549 -142,827c487,-279 1238,-413 2173,-413l336,1003l610,-7c-8,-109 -12,-219 -12,-330c0,-272 614,-506 1495,-609l5,-1c130,-18 250,-105 303,-172c174,-221 178,-482 8,-698c-60,-49 -83,-100 -197,-148c-534,-224 -722,415 -336,560c160,61 232,-25 198,-103c-41,-92 -169,-7 -207,-139c-17,-59 9,-103 40,-129c38,-32 90,-29 146,-25c152,49 258,126 273,300c15,177 -103,307 -232,346c-267,81 -615,-127 -663,-463c-48,-341 210,-616 514,-636c369,-25 625,197 744,416c159,295 93,657 -92,864c-41,50 -89,94 -142,133c-91,66 -199,114 -324,138c-277,32 -526,77 -735,133c-333,88 -541,171 -551,229c16,78 94,149 218,211c417,-184 1176,-307 2043,-307c868,0 1627,124 2044,307c124,-62 202,-133 218,-211c-10,-58 -218,-141 -551,-229c-74,-20 -153,-39 -237,-55l1,-1c-21,-6 -42,-12 -62,-18l-1,0c-48,-15 -96,-31 -145,-51l-3,-1l-3,-2l-5,-2l-2,0c-68,-28 -133,-59 -196,-96c-19,-11 -37,-23 -55,-35l-4,-2c-34,-22 -69,-46 -104,-72c-66,-50 -93,-76 -142,-143c-430,-592 -157,-1433 539,-1505c46,-5 100,2 145,-8c36,22 393,17 627,372c25,38 50,85 70,133c132,320 70,681 -207,869c-181,123 -435,127 -624,9c-198,-123 -354,-410 -243,-692c23,-58 51,-82 85,-118c129,-136 411,-134 535,88c47,84 67,245 -6,312c-87,79 -219,10 -201,-126c19,-139 -163,-167 -193,-38c-56,234 143,441 372,412c219,-29 337,-238 293,-493c-36,-215 -187,-374 -360,-440c-418,-161 -863,183 -782,715c37,248 160,400 288,511c104,92 206,131 318,159c664,120 1100,322 1100,551c0,256 -20,506 -59,747zm-973,1455l0,-275c0,-40 19,-76 49,-98c5,-4 10,-8 16,-10l5,-3l2,-1l3,-1l308,-141c31,-14 67,0 82,30c14,31 0,68 -31,82l-174,79c150,77 268,80 343,44c29,-15 50,-35 62,-58c11,-22 15,-47 9,-74c-14,-69 -85,-144 -230,-193l-6,-2l-7,-2c-107,-36 -298,-100 -385,-278c-98,23 -203,44 -314,61c-649,105 -1483,116 -2172,34c-504,-59 -934,-172 -1167,-338c100,370 259,701 485,967c359,425 898,690 1645,690c639,0 1124,-193 1476,-514l1,1zm8,-1018c-5,-30 -8,-61 -8,-95c0,-54 34,-99 82,-116l590,-270c20,-9 40,-12 61,-11c17,-108 30,-220 39,-333c-219,142 -560,244 -962,309c-390,63 -839,94 -1287,94c-447,0 -896,-31 -1286,-94c-402,-65 -743,-167 -962,-309c12,155 32,306 60,452c77,231 590,386 1240,463c679,81 1500,70 2138,-33c103,-17 202,-36 295,-57zm1375,244c-68,-223 -273,-420 -643,-486l-481,220c41,114 177,159 250,184l7,2l7,2c239,81 362,231 392,378c16,82 5,163 -32,234c-35,69 -94,128 -171,166c-116,57 -278,69 -466,-2l0,56c422,149 744,75 941,-97c96,-83 162,-191 196,-305c34,-115 35,-238 0,-352zm-3200,-2088c111,-4 225,-6 340,-6c227,0 446,8 654,23c93,114 202,204 320,276c-297,-34 -626,-53 -974,-53c-201,0 -397,7 -583,19l4,-4c97,-70 176,-157 239,-255zm973,1420l-375,-418l-375,418l750,0zm-279,158c11,-10 19,-22 26,-35l-243,0c6,13 15,25 25,35c25,25 59,40 96,40c38,0 72,-15 96,-40zm-4525,-3211l635,0l-375,-419l-375,419l115,0zm4881,3369c10,-10 19,-22 25,-35l-243,0c7,13 15,25 26,35c24,24 58,40 96,40c37,0 71,-16 96,-40zm-6323,-802c10,138 27,276 51,413l2438,891l0,-395l-2489,-909zm6402,1356c31,145 70,288 118,430l2292,837l0,-386l-8733,-1683l6323,802zm172,580c28,75 60,149 93,223c37,81 77,161 119,239l2026,740l0,-385l-2238,-817zm-6566,-2195l2429,887l-442,-1320c-454,9 -981,50 -1436,192c-201,63 -365,149 -551,241zm7529,2057c68,0 123,55 123,123s-55,123 -123,123s-123,-55 -123,-123s55,-123 123,-123zm754,274c68,0 123,56 123,123c0,68 -55,124 -123,124s-123,-56 -123,-124c0,-67 55,-123 123,-123z" id="svg_3"/>
   </g>
  </g>
 </g>
</svg>